<?xml version="1.0" standalone="no"?>
<!DOCTYPE svg PUBLIC "-//W3C//DTD SVG 1.1//EN" "http://www.w3.org/Graphics/SVG/1.1/DTD/svg11.dtd"><svg class="icon" viewBox="0 0 1024 1024" version="1.1" xmlns="http://www.w3.org/2000/svg"
                                                                                                       xmlns:xlink="http://www.w3.org/1999/xlink" width="200" height="200"><defs><style type="text/css"></style></defs><path d="M800.695 599.137l-425.09-425.09c-31.199-31.199-81.782-31.199-112.981 0L121.399 315.273c-31.199 31.199-31.199 81.782 0 112.981l425.09 425.09c31.199 31.199 81.782 31.199 112.981 0l141.226-141.226c31.198-31.199 31.198-81.782-0.001-112.981zM261.424 391.484c-21.377-21.377-21.376-56.035 0-77.411s56.034-21.377 77.411 0c21.376 21.376 21.376 56.034 0 77.411-21.376 21.376-56.035 21.376-77.411 0z" fill="#666666"></path><path d="M902.602 595.74l-425.09-425.09c-24.465-24.466-60.848-29.738-90.459-15.833a79.733 79.733 0 0 1 22.522 15.833l425.089 425.09c31.199 31.198 31.199 81.782 0 112.981L693.438 849.947a79.72 79.72 0 0 1-22.522 15.833c29.61 13.906 65.994 8.634 90.459-15.833l141.226-141.225c31.198-31.2 31.198-81.783 0.001-112.982z" fill="#666666"></path></svg>