<?xml version="1.0" standalone="no"?><!DOCTYPE svg PUBLIC "-//W3C//DTD SVG 1.1//EN"
        "http://www.w3.org/Graphics/SVG/1.1/DTD/svg11.dtd">
<svg
        class="icon" viewBox="0 0 1024 1024" version="1.1" xmlns="http://www.w3.org/2000/svg" width="200" height="200">
    <defs>
    </defs>
    <path d="M192 576m64 0l512 0q64 0 64 64l0 0q0 64-64 64l-512 0q-64 0-64-64l0 0q0-64 64-64Z"></path>
    <path d="M192 384m64 0l512 0q64 0 64 64l0 0q0 64-64 64l-512 0q-64 0-64-64l0 0q0-64 64-64Z"></path>
    <path d="M448 320m64 0l0 0q64 0 64 64l0 512q0 64-64 64l0 0q-64 0-64-64l0-512q0-64 64-64Z"></path>
    <path d="M166.048305 127.864954m45.254834-45.254834l0 0q45.254834-45.254834 90.509668 0l226.27417 226.27417q45.254834 45.254834 0 90.509668l0 0q-45.254834 45.254834-90.509668 0l-226.27417-226.27417q-45.254834-45.254834 0-90.509668Z"
    ></path>
    <path d="M542.328954 444.979772m-45.254834-45.254834l0 0q-45.254834-45.254834 0-90.509668l226.27417-226.27417q45.254834-45.254834 90.509668 0l0 0q45.254834 45.254834 0 90.509668l-226.27417 226.27417q-45.254834 45.254834-90.509668 0Z"
    ></path>
</svg>